<svg width="58" height="61" viewBox="0 0 58 61" fill="none" xmlns="http://www.w3.org/2000/svg">
<g filter="url(#filter0_d_2780_6169)">
<path d="M8 28C8 16.402 17.402 7 29 7C40.598 7 50 16.402 50 28C50 39.598 40.598 49 29 49C17.402 49 8 39.598 8 28Z" fill="#1F1F1F"/>
<path d="M29 21.3335C25.32 21.3335 22.3333 24.3202 22.3333 28.0002C22.3333 31.6802 25.32 34.6668 29 34.6668C32.68 34.6668 35.6666 31.6802 35.6666 28.0002C35.6666 24.3202 32.68 21.3335 29 21.3335ZM31.3333 28.5002H27.8733L29.02 29.6468C29.2133 29.8402 29.2133 30.1602 29.02 30.3535C28.92 30.4535 28.7933 30.5002 28.6666 30.5002C28.54 30.5002 28.4133 30.4535 28.3133 30.3535L26.3133 28.3535C26.12 28.1602 26.12 27.8402 26.3133 27.6468L28.3133 25.6468C28.5066 25.4535 28.8266 25.4535 29.02 25.6468C29.2133 25.8402 29.2133 26.1602 29.02 26.3535L27.8733 27.5002H31.3333C31.6066 27.5002 31.8333 27.7268 31.8333 28.0002C31.8333 28.2735 31.6066 28.5002 31.3333 28.5002Z" fill="white"/>
</g>
<defs>
<filter id="filter0_d_2780_6169" x="0" y="3" width="58" height="58" filterUnits="userSpaceOnUse" color-interpolation-filters="sRGB">
<feFlood flood-opacity="0" result="BackgroundImageFix"/>
<feColorMatrix in="SourceAlpha" type="matrix" values="0 0 0 0 0 0 0 0 0 0 0 0 0 0 0 0 0 0 127 0" result="hardAlpha"/>
<feOffset dy="4"/>
<feGaussianBlur stdDeviation="4"/>
<feComposite in2="hardAlpha" operator="out"/>
<feColorMatrix type="matrix" values="0 0 0 0 0 0 0 0 0 0 0 0 0 0 0 0 0 0 0.1 0"/>
<feBlend mode="normal" in2="BackgroundImageFix" result="effect1_dropShadow_2780_6169"/>
<feBlend mode="normal" in="SourceGraphic" in2="effect1_dropShadow_2780_6169" result="shape"/>
</filter>
</defs>
</svg>
