<svg width="20" height="21" viewBox="0 0 20 21" fill="none" xmlns="http://www.w3.org/2000/svg">
<path d="M9.99999 12.584C5.82499 12.584 2.42499 15.384 2.42499 18.834C2.42499 19.0673 2.60832 19.2507 2.84165 19.2507H17.1583C17.3917 19.2507 17.575 19.0673 17.575 18.834C17.575 15.384 14.175 12.584 9.99999 12.584Z" fill="#0F0F0F"/>
<path d="M9.99999 2.58398C9.01665 2.58398 8.11665 2.92565 7.39999 3.50065C6.44165 4.25898 5.83332 5.43398 5.83332 6.75065C5.83332 7.53398 6.04999 8.26732 6.44165 8.89232C7.15832 10.1007 8.47499 10.9173 9.99999 10.9173C11.05 10.9173 12.0083 10.534 12.7417 9.87565C13.0667 9.60065 13.35 9.26732 13.5667 8.89232C13.95 8.26732 14.1667 7.53398 14.1667 6.75065C14.1667 4.45065 12.3 2.58398 9.99999 2.58398ZM12.1583 6.30065L9.93332 8.35065C9.78332 8.49232 9.59165 8.55898 9.39999 8.55898C9.19999 8.55898 8.99999 8.48398 8.84999 8.33398L7.82499 7.30065C7.51666 6.99232 7.51666 6.50065 7.82499 6.19232C8.13332 5.88398 8.62499 5.88398 8.93332 6.19232L9.42499 6.68398L11.1 5.14232C11.4167 4.85065 11.9083 4.86732 12.2 5.18398C12.4917 5.50898 12.475 6.00898 12.1583 6.30065Z" fill="#0F0F0F"/>
</svg>
